<?xml version="1.0" encoding="UTF-8" standalone="no"?>
<!-- Generator: Adobe Illustrator 18.0.0, SVG Export Plug-In . SVG Version: 6.00 Build 0)  -->

<svg
   xmlns:dc="http://purl.org/dc/elements/1.1/"
   xmlns:cc="http://creativecommons.org/ns#"
   xmlns:rdf="http://www.w3.org/1999/02/22-rdf-syntax-ns#"
   xmlns:svg="http://www.w3.org/2000/svg"
   xmlns="http://www.w3.org/2000/svg"
   xmlns:sodipodi="http://sodipodi.sourceforge.net/DTD/sodipodi-0.dtd"
   xmlns:inkscape="http://www.inkscape.org/namespaces/inkscape"
   version="1.1"
   id="Layer_1"
   x="0px"
   y="0px"
   viewBox="0 0 560 560"
   enable-background="new 0 0 365 560"
   xml:space="preserve"
   inkscape:version="0.91 r13725"
   sodipodi:docname="marker-splash.svg"
   width="560"
   height="560"><metadata
     id="metadata11"><rdf:RDF><cc:Work
         rdf:about=""><dc:format>image/svg+xml</dc:format><dc:type
           rdf:resource="http://purl.org/dc/dcmitype/StillImage" /><dc:title></dc:title></cc:Work></rdf:RDF></metadata><defs
     id="defs9" /><sodipodi:namedview
     pagecolor="#ffffff"
     bordercolor="#666666"
     borderopacity="1"
     objecttolerance="10"
     gridtolerance="10"
     guidetolerance="10"
     inkscape:pageopacity="0"
     inkscape:pageshadow="2"
     inkscape:window-width="1680"
     inkscape:window-height="986"
     id="namedview7"
     showgrid="false"
     inkscape:zoom="1.3676196"
     inkscape:cx="258.3625"
     inkscape:cy="278.92867"
     inkscape:window-x="0"
     inkscape:window-y="27"
     inkscape:window-maximized="1"
     inkscape:current-layer="Layer_1"
     showguides="true"
     inkscape:guide-bbox="true"><sodipodi:guide
       position="280.77982,386.07226"
       orientation="1,0"
       id="guide4135" /><sodipodi:guide
       position="-65.807771,128.69075"
       orientation="0,1"
       id="guide4156" /><sodipodi:guide
       position="-28.516701,432.13769"
       orientation="0,1"
       id="guide4158" /></sodipodi:namedview><path
     inkscape:connector-curvature="0"
     style="fill:#98fb98;fill-opacity:1;stroke:#3cb371;stroke-width:5.57897043;stroke-miterlimit:4;stroke-dasharray:none;stroke-opacity:1"
     id="path5"
     d="m 281.21878,425.43805 c 0,0.0539 0.11542,0.1618 0.11542,0.1618 0,0 101.10501,-145.08477 101.10501,-192.7632 0,-70.16925 -51.245,-100.69638 -101.22042,-100.80426 -49.97543,0.10793 -101.22045,30.63501 -101.22045,100.80426 0,47.67843 101.16274,192.7632 101.16274,192.7632 0,0 0.0577,-0.1618 0.0577,-0.1618 z M 246.1898,228.84547 c 0,-18.12209 15.69668,-32.79239 35.08668,-32.79239 19.39,0 35.08668,14.6703 35.08668,32.79239 0,18.12212 -15.75439,32.79242 -35.14438,32.79242 -19.3323,0 -35.02898,-14.6703 -35.02898,-32.79242 z" /></svg>