<?xml version="1.0" encoding="UTF-8" standalone="no"?>
<!-- Generator: Adobe Illustrator 18.0.0, SVG Export Plug-In . SVG Version: 6.00 Build 0)  -->

<svg
   xmlns:dc="http://purl.org/dc/elements/1.1/"
   xmlns:cc="http://creativecommons.org/ns#"
   xmlns:rdf="http://www.w3.org/1999/02/22-rdf-syntax-ns#"
   xmlns:svg="http://www.w3.org/2000/svg"
   xmlns="http://www.w3.org/2000/svg"
   xmlns:sodipodi="http://sodipodi.sourceforge.net/DTD/sodipodi-0.dtd"
   xmlns:inkscape="http://www.inkscape.org/namespaces/inkscape"
   version="1.1"
   id="Layer_1"
   x="0px"
   y="0px"
   viewBox="0 0 560 560"
   enable-background="new 0 0 365 560"
   xml:space="preserve"
   inkscape:version="0.91 r13725"
   sodipodi:docname="marker-icon.svg"
   width="560"
   height="560"><metadata
     id="metadata11"><rdf:RDF><cc:Work
         rdf:about=""><dc:format>image/svg+xml</dc:format><dc:type
           rdf:resource="http://purl.org/dc/dcmitype/StillImage" /><dc:title></dc:title></cc:Work></rdf:RDF></metadata><defs
     id="defs9" /><sodipodi:namedview
     pagecolor="#ffffff"
     bordercolor="#666666"
     borderopacity="1"
     objecttolerance="10"
     gridtolerance="10"
     guidetolerance="10"
     inkscape:pageopacity="0"
     inkscape:pageshadow="2"
     inkscape:window-width="1680"
     inkscape:window-height="986"
     id="namedview7"
     showgrid="false"
     inkscape:zoom="1.3676196"
     inkscape:cx="258.3625"
     inkscape:cy="278.92867"
     inkscape:window-x="0"
     inkscape:window-y="27"
     inkscape:window-maximized="1"
     inkscape:current-layer="Layer_1"
     showguides="true"
     inkscape:guide-bbox="true"><sodipodi:guide
       position="280.77982,386.07226"
       orientation="1,0"
       id="guide4135" /></sodipodi:namedview><path
     inkscape:connector-curvature="0"
     style="fill:#98fb98;fill-opacity:1;stroke:#3cb371;stroke-width:9.79664612;stroke-miterlimit:4;stroke-dasharray:none;stroke-opacity:1"
     id="path5"
     d="m 280.88046,539.68054 c 0,0.0947 0.20267,0.28413 0.20267,0.28413 0,0 177.53993,-254.76817 177.53993,-338.49125 0,-123.216878 -89.98599,-176.822375 -177.7426,-177.011794 -87.75661,0.189419 -177.7426,53.794916 -177.7426,177.011794 0,83.72308 177.64126,338.49125 177.64126,338.49125 0,0 0.10134,-0.28413 0.10134,-0.28413 z m -61.5107,-345.21561 c 0,-31.82234 27.56328,-57.58329 61.61204,-57.58329 34.04875,0 61.61203,25.76095 61.61203,57.58329 0,31.82235 -27.66462,57.58329 -61.71337,57.58329 -33.94742,0 -61.5107,-25.76094 -61.5107,-57.58329 z" /></svg>